# xmcd
#
# Track frame offsets:
#	150
#	10666
#	23342
#	34550
#	45092
#	53891
#	63164
#	74929
#	85265
#	95646
#	107817
#	120732
#	133735
#	146359
#	157219
#	168276
#	177299
#	188179
#	200490
#	213675
#	224020
#	234822
#	246592
#	256229
#	266698
#
# Disc length: 3705 seconds
#
# Revision: 1
# Processed by: cddbd v1.5.2PL0 Copyright (c) Steve Scherf et al.
# Submitted via: audiograbber 1.83.01
#
DISCID=6c0e7719
DTITLE=Various Artist - Rock Your Socks Off Volume 1
DYEAR=1900
DGENRE=
TTITLE0=Joe Tex - Cut It Out
TTITLE1=Louis Jordan - Locked Up
TTITLE2=Louis Jordan - Bills
TTITLE3=Joe Houston - Boogie Woogie Woman
TTITLE4=Connie Boswell - You Aint Got Nothin
TTITLE5=Piano Red - Jump Man Jump
TTITLE6=Eddie Cleanhead Vinson - Kidney Stew
TTITLE7=Dappers - Baby You Know You're Wrong
TTITLE8=Billy Lamont - Tom Cat
TTITLE9=Louis Jordan - Aint Nobody Here But Us Chickens
TTITLE10=Ed Townsend Orch - Boogie Woogie
TTITLE11=Rollee McGill - Rhythm Rockin Blues
TTITLE12=Duces Of Rhythm - Fool At The Wheel
TTITLE13=Marie Knight - Grass Hopper Baby
TTITLE14=Little Terry - See See Boo Hoo
TTITLE15=Babs Gonzales - Old McDonald Did The Twist
TTITLE16=Henry Hayes Orch - If You'll Be My Love
TTITLE17=Jimmie McCracklin - I'm Gonna Tell Your Mother
TTITLE18=Eddie Clearwater - Twist Like This
TTITLE19=Tyrones - Candy And Flowers
TTITLE20=Rudy Green - Juicy Fruit
TTITLE21=Five Jades - Rock And Roll Molly
TTITLE22=Esquerita - Rockin The Joint
TTITLE23=Louis Jordan - Rock And Roll Call
TTITLE24=Hal Singer - Mr Movins Groovin
EXTD=
EXTT0=
EXTT1=
EXTT2=
EXTT3=
EXTT4=
EXTT5=
EXTT6=
EXTT7=
EXTT8=
EXTT9=
EXTT10=
EXTT11=
EXTT12=
EXTT13=
EXTT14=
EXTT15=
EXTT16=
EXTT17=
EXTT18=
EXTT19=
EXTT20=
EXTT21=
EXTT22=
EXTT23=
EXTT24=
PLAYORDER=
